<svg xmlns="http://www.w3.org/2000/svg" width="512" height="512" fill="#9b9b9b"><path d="m505.97 454.17-48.13-48.07c-3.9-3.89-7.73-6.89-12.45-9.75l-14.65-8.8c10.52-16.6 16.16-35.86 16.16-55.98.01-28.06-10.94-54.45-30.81-74.3a104.854 104.854 0 0 0-21.69-16.64v-36.95l29.86 21.77c3.57 2.6 8.57 1.82 11.17-1.74l27.18-37.2a8.042 8.042 0 0 0 1.45-5.95 8.022 8.022 0 0 0-3.19-5.23L236.79 11.94a7.998 7.998 0 0 0-9.43 0l-46.79 34.11V34.54c0-4.42-3.58-8-8-8h-86c-4.42 0-8 3.58-8 8v33.92c0 4.42 3.58 8 8 8h4.78v34.65L3.29 175.32c-1.72 1.25-2.86 3.13-3.19 5.23s.19 4.24 1.45 5.95l27.18 37.2a8.007 8.007 0 0 0 11.18 1.74l29.86-21.77V415.6c0 4.42 3.58 8 8 8h213.36c15.71 8.61 33.17 12.92 50.63 12.92 19.5 0 39-5.38 56.06-16.12l8.84 14.69c2.84 4.69 5.85 8.52 9.75 12.41l48.13 48.07c4.01 4.01 9.28 6.01 14.55 6.01s10.54-2 14.55-6.01l12.33-12.31c3.88-3.88 6.03-9.05 6.03-14.55s-2.14-10.67-6.03-14.54zM94.58 42.54h70v15.18l-3.76 2.74H94.58zm12.78 33.92h31.52l-31.52 22.98zM36.93 207.82l-17.74-24.28 212.9-155.23 212.89 155.23-17.74 24.28L236.79 68.96a7.998 7.998 0 0 0-9.43 0zm48.83-15.81L232.08 85.33 378.4 192.01v41.1c-30.18-11.16-64.51-8.04-92.38 9.35-.15-.01-.29-.02-.44-.02H178.59c-4.42 0-8 3.58-8 8V407.6H85.76zM186.59 407.6V258.44h79.65c-19.13 19.71-29.64 45.6-29.64 73.11 0 28.06 10.94 54.43 30.79 74.26.61.61 1.23 1.21 1.85 1.8h-82.65zm92.1-13.11c-16.83-16.81-26.1-39.16-26.1-62.94s9.27-46.14 26.1-62.96c34.78-34.71 91.34-34.71 126.09 0 16.85 16.83 26.12 39.19 26.12 62.98 0 23.77-9.28 46.12-26.12 62.92-34.75 34.73-91.31 34.73-126.09 0zm137.4 11.32c1.75-1.74 3.42-3.54 5.03-5.38l13.26 7.96-15.69 15.67-7.97-13.24c1.83-1.6 3.62-3.27 5.37-5.01zm78.58 66.13-12.33 12.32a4.593 4.593 0 0 1-6.49 0l-47.4-47.34 18.81-18.79 47.41 47.35c.86.86 1.33 2 1.33 3.23s-.47 2.38-1.33 3.23zM341.75 254.93c-42.3 0-76.71 34.37-76.71 76.62 0 42.24 34.41 76.6 76.71 76.6 42.28 0 76.68-34.36 76.68-76.6 0-42.25-34.4-76.62-76.68-76.62zm0 137.22c-33.48 0-60.71-27.18-60.71-60.6 0-33.43 27.24-60.62 60.71-60.62 33.46 0 60.68 27.2 60.68 60.62 0 33.41-27.22 60.6-60.68 60.6z"/></svg>