<svg xmlns="http://www.w3.org/2000/svg" width="80" height="80" version="1.0" viewBox="0 0 60 60"><defs><clipPath id="a"><path d="M0 2.398h60V23H0Zm0 0"/></clipPath></defs><path fill="#302b27" d="M53.11 53.316a1.404 1.404 0 0 1-1.403-1.402V17.887a1.404 1.404 0 0 1 2.809 0v34.027c0 .773-.63 1.402-1.407 1.402ZM53.11 59.992H6.901A1.404 1.404 0 0 1 5.5 58.59V17.824a1.405 1.405 0 1 1 2.809 0v39.36h44.8a1.405 1.405 0 1 1 0 2.808Zm0 0"/><g clip-path="url(#a)"><path fill="#302b27" d="M58.375 22.066c-.242 0-.488-.066-.715-.199L30.008 5.497 2.352 21.866a1.399 1.399 0 0 1-1.922-.492 1.402 1.402 0 0 1 .492-1.922L29.293 2.656a1.4 1.4 0 0 1 1.43 0l28.37 16.797a1.405 1.405 0 0 1-.718 2.613Zm0 0"/></g><path fill="#302b27" d="M58.145 59.992H1.867a1.404 1.404 0 0 1 0-2.808h56.278a1.405 1.405 0 1 1 0 2.808Zm0 0"/><path fill="#302b27" d="M44.188 40.941h-2.07l-1.333-4.171a5.167 5.167 0 0 0-4.906-3.57H24.066c-2.234 0-4.234 1.437-4.902 3.57l-1.336 4.171h-2.066c-.903 0-1.637.735-1.637 1.633v.938c0 .898.734 1.633 1.637 1.633h.566c-.336 1.5-.5 3.035-.5 4.57v7.84c0 .902.735 1.636 1.633 1.636h2.738c.899 0 1.633-.734 1.633-1.636v-2.5H38.18v2.5c0 .902.734 1.636 1.636 1.636h2.735c.902 0 1.636-.734 1.636-1.636v-7.871c0-1.536-.167-3.07-.5-4.57h.567c.902 0 1.637-.735 1.637-1.637v-.934c-.07-.867-.801-1.602-1.703-1.602ZM20.698 42.61l1.567-4.87c.27-.801 1-1.337 1.8-1.337H35.88c.836 0 1.57.535 1.8 1.336l1.571 4.871c.066.235-.102.434-.336.434H21.031c-.234.035-.398-.2-.332-.434Zm3.403 7.973h-3.305c-.567 0-1-.434-1-1v-1.566c0-.602.566-1.102 1.168-1.004l3.07.504c.399.066.735.363.832.765l.235 1.067a1.014 1.014 0 0 1-1 1.234Zm16.015-1c0 .566-.433 1-1 1h-3.304a.996.996 0 0 1-.97-1.2l.235-1.066a1 1 0 0 1 .836-.77l3.066-.5a1.008 1.008 0 0 1 1.168 1v1.536ZM42.242 20.25H17.773a1.405 1.405 0 1 1 0-2.809h24.47c.777 0 1.402.63 1.402 1.403 0 .777-.625 1.406-1.403 1.406ZM42.242 26.516H17.773a1.405 1.405 0 1 1 0-2.809h24.47c.777 0 1.402.629 1.402 1.402 0 .778-.625 1.407-1.403 1.407Zm0 0"/></svg>