<svg xmlns="http://www.w3.org/2000/svg" width="512" height="512" fill="var(--color-primary)"><path d="M394.42 247.95v-44.27l29.86 21.77a8.007 8.007 0 0 0 11.18-1.74l27.18-37.2a8.042 8.042 0 0 0 1.45-5.95 8.022 8.022 0 0 0-3.19-5.23L236.82 11.94a7.998 7.998 0 0 0-9.43 0l-46.81 34.13V34.54c0-4.42-3.58-8-8-8h-86c-4.42 0-8 3.58-8 8v33.92c0 4.42 3.58 8 8 8h4.78v34.65L3.29 175.32c-1.72 1.25-2.86 3.13-3.19 5.23s.19 4.24 1.45 5.95l27.18 37.2c2.6 3.56 7.6 4.35 11.17 1.74l29.86-21.77v211.95c0 4.42 3.58 8 8 8h189.8c19.25 45.75 64.58 77.97 117.31 77.97 70.1 0 127.14-56.97 127.14-126.99-.01-66.82-51.93-121.75-117.59-126.65zM94.58 42.54h70v15.19l-3.74 2.72H94.58zm12.78 33.92h31.53l-31.53 22.99zM36.93 207.81l-17.74-24.28L232.1 28.31 445 183.53l-17.74 24.28L236.82 68.96a7.998 7.998 0 0 0-9.43 0zm48.83-15.8L232.1 85.32 378.42 192v55.74c-33.21 1.66-63.09 16.11-84.83 38.5v-35.79c0-4.42-3.58-8-8-8h-107c-4.42 0-8 3.58-8 8v157.16H85.76zm100.83 215.62V258.47h91.01v47.99c-12.59 19.7-19.9 43.09-19.9 68.15 0 11.42 1.53 22.49 4.37 33.02zm198.27 77.96c-61.3 0-111.17-49.79-111.17-110.99 0-61.21 49.87-111.02 111.17-111.02 61.28 0 111.14 49.8 111.14 111.02 0 61.2-49.86 110.99-111.14 110.99zm40.58-160.44h-.03c-6.16 0-11.95 2.39-16.27 6.72l-37.06 36.72-11.66-11.32c-9.13-8.86-23.8-8.67-32.71.45-4.31 4.43-6.63 10.27-6.54 16.44s2.58 11.95 7.02 16.25l27.95 27.12c4.48 4.34 10.31 6.51 16.13 6.51 5.92 0 11.83-2.24 16.28-6.71l53.19-52.69c4.38-4.36 6.81-10.15 6.82-16.32.01-6.16-2.38-11.97-6.74-16.34-4.38-4.41-10.19-6.82-16.38-6.83zm5.01 28.12-53.21 52.72c-2.71 2.72-7.19 2.74-9.96.05l-27.95-27.12c-1.37-1.33-2.13-3.1-2.16-5s.69-3.7 2-5.04a7.147 7.147 0 0 1 5.12-2.15c1.8 0 3.6.67 4.98 2.02l17.29 16.79c3.13 3.03 8.11 3.01 11.2-.06l42.66-42.26a7.003 7.003 0 0 1 4.99-2.06h.01c1.91 0 3.7.75 5.05 2.1a6.993 6.993 0 0 1 2.07 5.01c0 1.88-.75 3.66-2.09 5z"/></svg>