<svg xmlns="http://www.w3.org/2000/svg" width="512" height="512" fill="var(--color-primary)"><path d="M477.95 279.16h-83.53v-75.48l29.86 21.77c3.57 2.6 8.57 1.82 11.17-1.74l27.18-37.2a8.042 8.042 0 0 0 1.45-5.95 8.022 8.022 0 0 0-3.19-5.23L236.82 11.94a7.998 7.998 0 0 0-9.43 0l-46.81 34.13V34.54c0-4.42-3.58-8-8-8h-86c-4.42 0-8 3.58-8 8v33.92c0 4.42 3.58 8 8 8h4.81v34.63l-88.1 64.23c-1.72 1.25-2.86 3.13-3.19 5.23s.19 4.24 1.45 5.95l27.18 37.2a8.007 8.007 0 0 0 11.18 1.74l29.89-21.79v211.97c0 4.42 3.58 8 8 8l273.93.42v61.54h-18.56c-4.42 0-8 3.58-8 8s3.58 8 8 8h79.79c4.42 0 8-3.58 8-8s-3.58-8-8-8h-18.53v-61.54h83.53c18.78 0 34.05-15.26 34.05-34.02v-76.86c-.01-18.74-15.28-34-34.06-34zm-110.23 0V264.7h10.7v14.46zM94.58 42.54h70v15.19l-3.74 2.72H94.58zm12.81 33.92h31.51l-31.51 22.97zM36.93 207.81l-17.74-24.28L232.1 28.31 445 183.53l-17.74 24.28L236.82 68.96a7.998 7.998 0 0 0-9.43 0zm48.86-15.82L232.1 85.32 378.42 192v56.69h-18.7c-4.42 0-8 3.58-8 8v22.46H293.6v-28.69c0-4.42-3.58-8-8-8H178.62c-4.42 0-8 3.58-8 8v157.16H85.79zm153.27 215.64h-52.44V258.47h90.98v20.69h-9.41c-18.78 0-34.05 15.26-34.05 34.02v76.86c0 6.43 1.8 12.45 4.92 17.59zm139.36 77.96h-10.7v-61.54h10.7zM496 390.03c0 9.93-8.1 18.02-18.05 18.02l-213.62-.42c-8.1-1.77-14.19-8.98-14.19-17.59v-76.86c0-9.93 8.1-18.02 18.05-18.02h209.76c9.95 0 18.05 8.08 18.05 18.02zm-154.45-54.22v7.81h17.34c4.42 0 8 3.58 8 8s-3.58 8-8 8h-17.34v7.78h17.34c4.42 0 8 3.58 8 8s-3.58 8-8 8h-25.34c-4.42 0-8-3.58-8-8v-47.59c0-4.42 3.58-8 8-8h25.34c4.42 0 8 3.58 8 8s-3.58 8-8 8zm-22.67 3.89c0-10.97-8.93-19.89-19.91-19.89h-20.95c-4.42 0-8 3.58-8 8v47.59c0 4.42 3.58 8 8 8s8-3.58 8-8v-15.78h2.73l10.55 19.58a8.01 8.01 0 0 0 7.05 4.21 8.01 8.01 0 0 0 7.04-11.8l-7.2-13.36c7.41-2.91 12.69-10.12 12.69-18.55zm-32.86-3.89h12.95c2.12 0 3.91 1.78 3.91 3.89 0 2.16-1.75 3.92-3.91 3.92h-12.95zm138.76-8v47.59a8.003 8.003 0 0 1-14.6 4.53l-18.09-26.34v21.81c0 4.42-3.58 8-8 8s-8-3.58-8-8v-47.59a8.003 8.003 0 0 1 14.6-4.53l18.09 26.34v-21.81c0-4.42 3.58-8 8-8s8 3.58 8 8zm53.09 0c0 4.42-3.58 8-8 8h-8.33v39.59c0 4.42-3.58 8-8 8s-8-3.58-8-8v-39.59h-8.36c-4.42 0-8-3.58-8-8s3.58-8 8-8h32.68a8 8 0 0 1 8.01 8z"/></svg>