<svg xmlns="http://www.w3.org/2000/svg" width="80" height="80" version="1.0" viewBox="0 0 60 60"><defs><clipPath id="a"><path d="M28 .125h4V7h-4Zm0 0"/></clipPath><clipPath id="b"><path d="M11.176 11.238h37.527v48.63H11.176Zm0 0"/></clipPath></defs><g clip-path="url(#a)"><path fill="#302b27" d="M28.68 6.242a23.834 23.834 0 0 1 2.758 0V.125H28.68v6.117"/></g><path fill="#302b27" d="m15.05 4.098-1.206.695 3.074 5.332c.777-.512 1.582-.98 2.418-1.398l-3.074-5.329-1.211.7M10.129 16.914 4.8 13.836l-.7 1.21-.699 1.208 5.328 3.078a23.15 23.15 0 0 1 1.399-2.418M51.29 40.676a23.866 23.866 0 0 1-1.4 2.418l5.329 3.078.699-1.211.695-1.207-5.324-3.078M6.207 30.04c0-.47.016-1.02.043-1.38H.027v2.758H6.25a23.53 23.53 0 0 1-.043-1.379M53.813 30.04c0 .468-.016.898-.043 1.378h6.203V28.66H53.77c.027.36.042.91.042 1.38M10.129 43.094a23.15 23.15 0 0 1-1.399-2.418l-5.328 3.078.7 1.207.699 1.21 5.328-3.077M55.918 15.047l-.7-1.211-5.327 3.078c.511.773.976 1.582 1.398 2.418l5.324-3.078-.695-1.207M46.176 4.793l-2.418-1.395-3.074 5.329c.836.418 1.64.886 2.414 1.398l3.078-5.332"/><g clip-path="url(#b)"><path fill="#302b27" d="M38.824 43.395c-1.746 1.18-2.906 2.89-3.242 5.046H24.254c-.34-2.156-1.496-3.87-3.246-5.05-4.399-2.97-7.024-7.938-7.024-13.266 0-8.785 7.149-15.984 15.922-16.031 8.793.047 15.942 7.234 15.942 16.02 0 5.327-2.625 10.312-7.024 13.28Zm-3.289 9.77c-.066.651-.625.96-2.441 1.398l-.922.222-.137.938c-.172 1.207-1.64 1.34-2.12 1.351-.481-.011-1.946-.144-2.118-1.351l-.137-.938-.918-.222c-1.86-.446-2.402-.766-2.449-1.45a2.501 2.501 0 0 1 .047-.59l.02-.101v-1.223h11.117v1.223l.015.11c.043.245.063.448.043.632Zm-5.629-41.872c-10.32.059-18.715 8.496-18.715 18.816a18.741 18.741 0 0 0 8.254 15.563c1.325.894 2.117 2.36 2.121 3.918v2.594l-.011.078c-.442 3.254 1.984 4.32 3.726 4.808.66 1.696 2.375 2.762 4.614 2.797h.039c2.242-.035 3.957-1.101 4.617-2.797 1.73-.484 4.133-1.543 3.734-4.742a1.614 1.614 0 0 0-.02-.144l.005-1.856a1.402 1.402 0 0 0 .015-1.082c.106-1.43.875-2.746 2.102-3.574a18.741 18.741 0 0 0 8.254-15.563c0-10.32-8.399-18.757-18.735-18.816"/></g><path fill="#302b27" d="M36.164 28.066a2.957 2.957 0 0 0-2.953 2.961c0 .094-.07.172-.164.172a.17.17 0 0 1-.168-.172 2.964 2.964 0 0 0-5.926 0 .17.17 0 0 1-.168.172.173.173 0 0 1-.172-.172c0-1.632-1.347-2.96-2.98-2.96-1.637 0-2.985 1.328-2.985 2.96v1.59h2.88v-1.59c0-.093.054-.168.144-.168.094 0 .16.075.16.168a2.964 2.964 0 0 0 2.957 2.965 2.967 2.967 0 0 0 2.961-2.965c0-.093.074-.168.168-.168.094 0 .168.075.168.168a2.968 2.968 0 0 0 2.965 2.965 2.967 2.967 0 0 0 2.96-2.965.17.17 0 0 1 .173-.168.17.17 0 0 1 .171.168v1.59h2.758v-1.59a2.952 2.952 0 0 0-2.949-2.96"/></svg>