<svg xmlns="http://www.w3.org/2000/svg" width="512" height="512" fill="#9b9b9b"><path d="M407.34 145.79c0 4.42-3.58 8-8 8h-80.38c-4.42 0-8-3.58-8-8s3.58-8 8-8h80.38c4.42 0 8 3.58 8 8zm-8 79.56h-245.1c-4.42 0-8 3.58-8 8s3.58 8 8 8h245.11c4.42 0 8-3.58 8-8s-3.59-8-8.01-8zm0-43.79h-80.38c-4.42 0-8 3.58-8 8s3.58 8 8 8h80.38c4.42 0 8-3.58 8-8s-3.58-8-8-8zm0 87.56h-245.1c-4.42 0-8 3.58-8 8s3.58 8 8 8h245.11c4.42 0 8-3.58 8-8s-3.59-8-8.01-8zm-4.54 43.79H154.24c-4.42 0-8 3.58-8 8s3.58 8 8 8H394.8c4.42 0 8-3.58 8-8s-3.58-8-8-8zm0 43.77H154.24c-4.42 0-8 3.58-8 8s3.58 8 8 8H394.8c4.42 0 8-3.58 8-8s-3.58-8-8-8zm-85.34 43.79H154.24c-4.42 0-8 3.58-8 8s3.58 8 8 8h155.22c4.42 0 8-3.58 8-8s-3.58-8-8-8zM459.4 100.86v361.61c0 4.42-3.58 8-8 8h-40.56V504c0 4.42-3.58 8-8 8H60.6c-4.42 0-8-3.58-8-8V59.53c0-4.42 3.58-8 8-8h33.58V8c0-4.42 3.58-8 8-8h256.23c2.12 0 4.15.84 5.65 2.34l92.98 92.86a7.985 7.985 0 0 1 2.36 5.66zm-92.98-8h65.65L366.42 27.3zm28.41 377.61H102.18c-4.42 0-8-3.58-8-8V67.53H68.6V496h326.23zm48.57-16V108.86h-84.98c-4.42 0-8-3.58-8-8V16H110.18v438.47zM147.78 118.2c-1.25-1.71-1.78-3.86-1.45-5.96s1.48-3.98 3.19-5.23l70.59-51.45a7.983 7.983 0 0 1 9.42 0l70.61 51.45a7.945 7.945 0 0 1 3.19 5.23c.33 2.1-.19 4.24-1.45 5.96l-11.72 16.02a8 8 0 0 1-11.11 1.78v53.56c0 4.42-3.58 8-8 8h-92.44c-4.42 0-8-3.58-8-8v-53.57a7.97 7.97 0 0 1-4.65 1.5 7.96 7.96 0 0 1-6.46-3.28zm84.6 63.36v-39.44H217.3v39.44zm30.68 0v-57.22l-38.23-27.86-38.21 27.86v57.23h14.68v-47.44c0-4.42 3.58-8 8-8h31.08c4.42 0 8 3.58 8 8v47.44h14.68zm-97.63-66.34 2.27 3.1 52.41-38.21c1.4-1.02 3.06-1.54 4.71-1.54s3.31.51 4.71 1.53l52.44 38.21 2.27-3.1-59.42-43.29z"/></svg>