<svg xmlns="http://www.w3.org/2000/svg" width="32" height="32" version="1.0" viewBox="0 0 60 60"><defs><clipPath id="a"><path d="M.254 0H3v60H.254Zm0 0"/></clipPath><clipPath id="b"><path d="M.254 56h59.25v4H.254Zm0 0"/></clipPath><clipPath id="c"><path d="M.254 0H14v3H.254Zm0 0"/></clipPath><clipPath id="d"><path d="M56 47h3.504v13H56Zm0 0"/></clipPath></defs><g clip-path="url(#a)"><path fill="#302B27" d="M2.883 1.355v56.43a1.33 1.33 0 0 1-2.66 0V1.355a1.33 1.33 0 0 1 2.66 0Zm0 0"/></g><g clip-path="url(#b)"><path fill="#302B27" d="m58.402 57.34-56.425-.473a1.336 1.336 0 0 0-1.344 1.32 1.33 1.33 0 0 0 1.32 1.34L58.38 60a1.33 1.33 0 0 0 .023-2.66Zm0 0"/></g><g clip-path="url(#c)"><path fill="#302B27" d="M11.879 2.816H1.769a1.33 1.33 0 1 1 0-2.66h10.11a1.33 1.33 0 0 1 0 2.66Zm0 0"/></g><g clip-path="url(#d)"><path fill="#302B27" d="m57.02 48.332-.086 10.113a1.327 1.327 0 0 0 1.316 1.34 1.336 1.336 0 0 0 1.344-1.32l.082-10.11a1.325 1.325 0 0 0-1.317-1.34 1.325 1.325 0 0 0-1.34 1.317Zm0 0"/></g><path fill="#302B27" d="M2.504 29.031h6.293a1.328 1.328 0 1 1 0 2.657H2.504a1.33 1.33 0 0 1-1.332-1.329 1.33 1.33 0 0 1 1.332-1.328ZM30.727 57.492l.054-6.297a1.33 1.33 0 0 0-2.66-.023l-.055 6.297a1.33 1.33 0 0 0 2.66.023ZM50.906 16.473a8.5 8.5 0 0 0-1.832.195c-.55.102-1.136.27-1.77.496.063.426.157.836.282 1.219.105.367.207.683.312.945.344-.144.711-.265 1.098-.371.383-.102.883-.156 1.492-.16.715-.004 1.317.117 1.805.36.492.218.738.655.742 1.308 0 .508-.2 1.078-.601 1.715a16.43 16.43 0 0 1-1.489 2.02 66.4 66.4 0 0 1-2.004 2.179c-.73.738-1.418 1.453-2.066 2.148l.152.368 9.438-.047c.02-.164.039-.336.058-.52v-.582a5.345 5.345 0 0 0-.035-.578c0-.184-.011-.36-.031-.52l-4.676.024 1.188-1.2c.91-.917 1.597-1.8 2.062-2.636a5.127 5.127 0 0 0 .692-2.598c-.008-1.222-.45-2.156-1.328-2.804-.88-.649-2.043-.97-3.489-.961ZM28.61 22.297a5.161 5.161 0 0 0-2.93.902 5.306 5.306 0 0 0-1.636 1.961 11.062 11.062 0 0 0-.102-1.281 16.777 16.777 0 0 0-.187-1.192 8.307 8.307 0 0 0-.64-.085 4.951 4.951 0 0 0-.614-.028c-.223 0-.445.012-.672.031a8.867 8.867 0 0 0-.64.098l.082 15.668c.222.04.476.066.761.086a9.407 9.407 0 0 0 1.527-.008c.266-.02.508-.05.735-.094l-.043-8.003c-.004-.895.094-1.688.293-2.383.18-.672.441-1.235.785-1.684.324-.45.711-.789 1.156-1.015.45-.223.926-.34 1.434-.34.898-.008 1.55.336 1.96 1.027.411.668.622 1.688.626 3.05l.047 9.317c.226.04.48.067.765.086.266.02.508.028.735.028.222 0 .476-.012.761-.036.266-.02.508-.05.735-.093l-.047-8.86c-.008-1.465.313-2.574.96-3.332.63-.758 1.462-1.137 2.5-1.144.977-.004 1.68.347 2.114 1.058.43.692.649 1.739.656 3.145l.047 9.101c.223.04.477.067.762.086.266.02.512.028.734.028.223 0 .48-.012.762-.036.285-.02.543-.05.766-.093l-.051-9.989c-.012-1.996-.434-3.5-1.273-4.511-.82-1.016-2.137-1.52-3.95-1.508-.59.004-1.12.086-1.586.25a4.91 4.91 0 0 0-1.25.648c-.367.266-.699.575-1.004.922a8.008 8.008 0 0 0-.726 1.043c-.352-.894-.863-1.594-1.54-2.101-.651-.485-1.589-.723-2.812-.72Zm0 0"/></svg>