<svg xmlns="http://www.w3.org/2000/svg" width="80" height="80" version="1.0" viewBox="0 0 60 60"><defs><clipPath id="a"><path d="M27 0h31.215v24H27Zm0 0"/></clipPath><clipPath id="b"><path d="M1.965 17H25v43H1.965Zm0 0"/></clipPath></defs><path fill="#302b27" d="M54.578 33.438h-2.062c.394-.766.59-1.586.59-2.461a.495.495 0 0 0-.493-.493h-8.36v-2.457c0-.27.224-.492.493-.492.27 0 .492.223.492.492v.985c0 .27.219.492.492.492h1.965c.27 0 .492-.223.492-.492v-.985a3.45 3.45 0 0 0-3.44-3.441 3.45 3.45 0 0 0-3.442 3.441v2.457h-8.36a.495.495 0 0 0-.492.493c0 .875.195 1.695.59 2.46h-2.066a.488.488 0 0 0-.489.489v22.62c0 .27.219.493.489.493h.492v2.457c0 .27.222.492.492.492h1.969c.27 0 .492-.222.492-.492V57.04h16.715v2.457c0 .27.222.492.492.492h1.969c.27 0 .492-.222.492-.492V57.04h.488a.493.493 0 0 0 .492-.492V33.926a.49.49 0 0 0-.492-.489Zm-12.289-5.41a2.464 2.464 0 0 1 2.457-2.458 2.464 2.464 0 0 1 2.457 2.457v.493h-.98v-.493a1.48 1.48 0 0 0-1.477-1.476 1.48 1.48 0 0 0-1.476 1.476v2.457h-.98Zm-8.828 3.44h18.637c-.075.7-.32 1.38-.727 1.97H34.187a4.267 4.267 0 0 1-.726-1.97Zm-.023 27.536h-.985v-1.965h.984Zm19.667 0h-.984v-1.965h.984Zm.985-2.95H31.469V34.419h22.62Zm0 0"/><path fill="#302b27" d="M32.453 35.895v4.917c0 .27.223.493.492.493h19.668c.27 0 .492-.223.492-.492v-4.918a.495.495 0 0 0-.492-.493H32.945a.495.495 0 0 0-.492.493Zm.984.492h18.684v3.933H33.437ZM41.797 42.285h-8.852a.495.495 0 0 0-.492.492v11.801c0 .27.223.492.492.492h8.852c.27 0 .492-.222.492-.492v-11.8a.495.495 0 0 0-.492-.493Zm-.492 11.8h-7.867V43.27h7.867Zm0 0"/><path fill="#302b27" d="M38.844 51.137h.984c.27 0 .492-.223.492-.492a.495.495 0 0 0-.492-.493h-.492v-2.949h.492c.27 0 .492-.223.492-.492a.495.495 0 0 0-.492-.492h-.984a.492.492 0 0 0-.489.492v3.934c0 .27.22.492.489.492ZM45.73 50.152a.493.493 0 0 0 0 .985h.98a.493.493 0 0 0 .493-.492V46.71a.493.493 0 0 0-.492-.492h-.98a.493.493 0 0 0 0 .984h.492v2.95Zm0 0"/><path fill="#302b27" d="M52.613 42.285h-8.851a.495.495 0 0 0-.492.492v11.801c0 .27.222.492.492.492h8.851c.27 0 .492-.222.492-.492v-11.8a.495.495 0 0 0-.492-.493Zm-.492 11.8h-7.867V43.27h7.867ZM44.746 37.371a.492.492 0 0 0-.492.488v.493h-2.95v-.493a.492.492 0 0 0-.984 0v.985c0 .27.223.492.492.492h3.934c.27 0 .492-.223.492-.492v-.985a.492.492 0 0 0-.492-.488Zm0 0"/><g clip-path="url(#a)"><path fill="#302b27" d="M57.531 20.652h-2.547c.051-.16.086-.32.086-.492V1.477A1.48 1.48 0 0 0 53.598 0H31.96c-.813 0-1.473.664-1.473 1.477V20.16c0 .172.035.332.086.492h-2.547a.493.493 0 0 0-.492.493v1.964c0 .27.223.493.492.493h29.504c.27 0 .492-.223.492-.493v-1.964a.493.493 0 0 0-.492-.493ZM31.47 20.16V1.477c0-.274.222-.493.492-.493h21.637c.27 0 .492.22.492.493V20.16c0 .27-.223.492-.492.492H31.96a.495.495 0 0 1-.492-.492Zm25.57 2.457H28.52v-.98h28.52Zm0 0"/></g><path fill="#302b27" d="M5.902 29.012a7.381 7.381 0 0 0 7.375 7.375 7.381 7.381 0 0 0 7.375-7.375v-1.969a7.381 7.381 0 0 0-7.375-7.375 7.381 7.381 0 0 0-7.375 7.375Zm.985-1.969a6.393 6.393 0 0 1 6.39-6.39 6.393 6.393 0 0 1 6.391 6.39v1.969a6.393 6.393 0 0 1-6.39 6.39 6.393 6.393 0 0 1-6.391-6.39Zm0 0"/><g clip-path="url(#b)"><path fill="#302b27" d="M22.863 19.668h-3.86a9.291 9.291 0 0 0-5.726-1.965 9.302 9.302 0 0 0-5.73 1.965h-3.86c-.945 0-1.718.773-1.718 1.723v13.027c0 1.316.652 2.484 1.644 3.2-.39.269-.66.71-.66 1.226 0 .64.402 1.18.98 1.39v1.559a9.356 9.356 0 0 0 4.5 7.992l-.566 9.688c-.012.132.04.27.137.367.098.097.223.16.355.16h9.836c.133 0 .27-.063.356-.16a.513.513 0 0 0 .137-.367l-.567-9.688a9.33 9.33 0 0 0 4.5-7.992v-1.559c.574-.21.98-.75.98-1.39 0-.516-.257-.957-.663-1.227a3.936 3.936 0 0 0 1.648-3.199V21.391c0-.95-.773-1.723-1.723-1.723Zm.739 1.723v1.226H21.5a9.824 9.824 0 0 0-1.426-1.965h2.79a.74.74 0 0 1 .738.739Zm-1.965 5.652v1.969c0 4.61-3.75 8.36-8.36 8.36-4.609 0-8.359-3.75-8.359-8.36v-1.969c0-4.61 3.75-8.36 8.36-8.36 4.609 0 8.359 3.75 8.359 8.36Zm-17.95-6.39H6.47a9.842 9.842 0 0 0-1.43 1.964H2.953v-1.226c0-.407.328-.739.735-.739Zm-.734 13.765V23.602h1.645a9.197 9.197 0 0 0-.664 3.441v1.969c0 3.648 2.117 6.82 5.175 8.36H5.902a2.957 2.957 0 0 1-2.949-2.954ZM17.68 59.004H8.875l.516-8.715a9.315 9.315 0 0 0 7.77 0Zm-4.403-8.852c-4.609 0-8.359-3.746-8.359-8.359V40.32h16.719v1.473c0 4.613-3.75 8.36-8.36 8.36Zm8.852-11.8c.27 0 .492.222.492.492s-.223.492-.492.492H4.426a.495.495 0 0 1-.492-.492c0-.27.222-.492.492-.492Zm1.473-3.934a2.96 2.96 0 0 1-2.95 2.953h-3.207c3.059-1.539 5.176-4.71 5.176-8.36v-1.968a9.197 9.197 0 0 0-.664-3.441h1.645Zm0 0"/></g></svg>