<svg xmlns="http://www.w3.org/2000/svg" width="512" height="512" fill="#9b9b9b"><path d="M462.31 373.82c0-17.44-11-32.77-26.93-38.67v-49.12c0-10.27-9.53-18.62-21.24-18.62-8.93 0-16.58 4.85-19.72 11.69v-75.43l29.86 21.78a8.007 8.007 0 0 0 11.18-1.74l27.19-37.2c1.25-1.71 1.77-3.86 1.45-5.95s-1.48-3.98-3.19-5.23L236.8 11.93a7.998 7.998 0 0 0-9.43 0l-46.82 34.14V34.53c0-4.42-3.58-8-8-8H86.58c-4.42 0-8 3.58-8 8v33.92c0 4.42 3.58 8 8 8h4.79v34.65L3.29 175.32c-1.72 1.25-2.86 3.13-3.19 5.23s.19 4.24 1.45 5.95l27.19 37.2c2.6 3.56 7.6 4.34 11.17 1.74l29.87-21.78v211.97c0 4.42 3.58 8 8 8h158.16l7.51 56.31c1.61 12.35 12.24 21.66 24.71 21.66h.62c6.68 0 12.96-2.61 17.69-7.35 4.71-4.72 7.29-10.97 7.27-17.59l-.05-53.12h7.93c34.07 0 66.35 12.78 91.27 36.05v2.02c0 10.27 9.54 18.62 21.27 18.62 11.71 0 21.24-8.35 21.24-18.62v-49.12c15.91-5.9 26.91-21.23 26.91-38.67zM94.58 42.53h69.98v15.2l-3.73 2.72H94.57V42.53zm12.78 33.92h31.52l-31.52 22.98zM36.93 207.81l-17.75-24.28L232.08 28.3l212.9 155.23-17.75 24.28L236.8 68.95c-1.4-1.02-3.06-1.54-4.71-1.54s-3.31.51-4.71 1.54zM85.76 192 232.09 85.31 378.41 192v107.78c-22.4 15.78-49.01 24.3-76.82 24.3h-8.02v-73.62c0-4.42-3.58-8-8-8H178.6c-4.42 0-8 3.58-8 8v157.17H85.76zm191.82 132.09h-42.4c-17.98 0-32.61 14.61-32.61 32.57V391c0 6.07 1.68 11.76 4.59 16.63H186.6V258.46h90.98zm-42.4 83.46c-9.16 0-16.61-7.42-16.61-16.55v-34.34c0-9.14 7.45-16.57 16.61-16.57h42.41l.07 67.46zm42.54 69.15c.01 2.35-.92 4.57-2.6 6.26a8.91 8.91 0 0 1-6.36 2.65h-.62c-4.54 0-8.26-3.25-8.85-7.75l-7.23-54.22h20.9v-.08h4.7zm23.88-69.15h-7.94l-.07-67.46h8.01c33.35 0 65.16-10.93 91.27-31.08v129.62c-26.11-20.15-57.92-31.08-91.27-31.08zm117.78 54.06c0 .8-1.98 2.62-5.24 2.62-3.28 0-5.27-1.82-5.27-2.62V286.02c0-.8 1.99-2.62 5.27-2.62 3.26 0 5.24 1.82 5.24 2.62zm16-67.02v-41.53c6.66 4.6 10.93 12.27 10.93 20.77 0 8.48-4.28 16.15-10.93 20.76zM512 373.82c0 4.42-3.58 8-8 8h-19.05c-4.42 0-8-3.58-8-8s3.58-8 8-8H504c4.42 0 8 3.58 8 8zm-24.77 48.47a7.994 7.994 0 0 1 .01 11.31c-1.56 1.56-3.61 2.35-5.66 2.35s-4.09-.78-5.65-2.34l-13.49-13.48a7.994 7.994 0 0 1-.01-11.31 7.994 7.994 0 0 1 11.31-.01zm-24.8-94.76 13.49-13.48c3.13-3.12 8.19-3.12 11.31.01s3.12 8.19-.01 11.31l-13.49 13.48a7.974 7.974 0 0 1-5.65 2.34c-2.05 0-4.1-.78-5.66-2.35a7.994 7.994 0 0 1 .01-11.31z"/></svg>