<svg xmlns="http://www.w3.org/2000/svg" width="80" height="80" version="1.0" viewBox="0 0 60 60"><defs><clipPath id="a"><path d="M.96 0h57.75v60H.96Zm0 0"/></clipPath></defs><g clip-path="url(#a)"><path fill="#302b27" d="M1.926 0a.968.968 0 0 0 0 1.938h22.261c0 .207.067.41.192.578l2.71 3.613v6.191l-3.745 6.551a.986.986 0 0 0-.121.48v1.938c.004.531.433.961.965.965v2.906c0 .535.437.965.972.965h15.48a.972.972 0 0 0 .965-.965v-2.906c.536 0 .97-.43.973-.965v-1.937a1.04 1.04 0 0 0-.129-.48l-3.746-6.552V6.13l2.707-3.613a.973.973 0 0 0 .195-.579h16.45a.97.97 0 0 0 .972-.972.966.966 0 0 0-.972-.965Zm24.441 1.938h13.059l-2.465 3.28a.98.98 0 0 0-.191.583v1.937h-7.747V5.801a.98.98 0 0 0-.191-.582ZM1.926 3.862a.968.968 0 0 0-.961.973v17.418a.964.964 0 0 0 .96.969h18.391a.967.967 0 0 0 .973-.97V4.837a.97.97 0 0 0-.973-.973Zm47.422 0c-2.727 0-4.836 2.461-4.836 5.332a5.66 5.66 0 0 0 1.11 3.383h-.145a.97.97 0 0 0 0 1.938h12.578a.969.969 0 1 0 0-1.938h-.133a5.658 5.658 0 0 0 1.105-3.383c0-2.87-2.109-5.332-4.836-5.332-.89 0-1.714.262-2.421.715a4.521 4.521 0 0 0-2.422-.715ZM2.898 5.801h7.258v6.777H2.898Zm9.196 0h7.258v6.777h-7.258Zm38.226.195a5.698 5.698 0 0 0-.972 3.2c0 1.179.359 2.288.968 3.187a2.556 2.556 0 0 1-1.004.195c-1.554-.043-2.863-1.476-2.863-3.387 0-1.906 1.309-3.347 2.864-3.39.367 0 .695.066 1.007.195Zm6.774 3.2c0 1.906-1.313 3.34-2.903 3.382-1.59-.043-2.906-1.476-2.906-3.383 0-1.91 1.383-3.394 2.871-3.394 1.586 0 2.938 1.453 2.938 3.394Zm-28.07.476h7.746v1.933h-7.747Zm-.399 3.871h8.55l3.466 6.066v.707H25.16v-.707Zm-25.727.973h16.454v6.773H2.898Zm42.579 1.937c-.532 0-.961.43-.965.961a.97.97 0 0 0 .965.965h1.457v5c-1.45.484-2.422 2.027-2.422 3.715 0 2.039 1.422 3.875 3.386 3.875 1.961 0 3.387-1.836 3.387-3.875 0-1.684-.976-3.23-2.422-3.715v-5h5.805v5c-1.441.488-2.414 2.031-2.414 3.715 0 2.039 1.422 3.875 3.387 3.875 1.964 0 3.386-1.836 3.386-3.875 0-1.684-.972-3.23-2.422-3.715v-5h1.45a.966.966 0 0 0 .972-.965.965.965 0 0 0-.972-.96Zm-19.356 5.8h13.555v1.934H26.12Zm21.777 2.907c.707 0 1.45.766 1.45 1.934s-.743 1.937-1.45 1.937c-.71 0-1.449-.77-1.449-1.937 0-1.168.739-1.934 1.45-1.934Zm7.743 0c.707 0 1.453.766 1.453 1.934s-.746 1.937-1.453 1.937c-.707 0-1.45-.77-1.45-1.937 0-1.168.743-1.934 1.45-1.934Zm-30.48 6.77a.969.969 0 0 0-.974.965H1.927a.968.968 0 0 0-.961.972v25.16a.968.968 0 0 0 .96.973h56.13c.539 0 .976-.434.972-.973v-25.16a.968.968 0 0 0-.972-.972h-16.45a.972.972 0 0 0-.964-.965h-4.836a.971.971 0 0 0-.973.965h-3.871a.972.972 0 0 0-.965-.965ZM2.897 34.832H21.29v23.234H2.9Zm20.325 0h19.355v23.234H23.223Zm21.289 0h12.582v23.234H44.512ZM5.8 36.77a.963.963 0 0 0-.965.968v17.418a.969.969 0 0 0 .965.973h12.578c.539 0 .973-.438.973-.973V37.738a.967.967 0 0 0-.973-.968Zm19.36 0a.966.966 0 1 0 0 1.934h.96a.968.968 0 1 0 0-1.934Zm4.835 0a.967.967 0 1 0 0 1.933h.965a.963.963 0 0 0 .969-.965.964.964 0 0 0-.97-.968Zm5.32 0a.964.964 0 0 0-.968.968c0 .535.437.969.968.965h.965a.969.969 0 0 0 .973-.965.964.964 0 0 0-.973-.968Zm4.36 0a.967.967 0 1 0 0 1.933h.965a.967.967 0 0 0 0-1.933Zm7.734 0a.962.962 0 0 0-.96.968v17.418a.965.965 0 0 0 .96.973h7.746a.971.971 0 0 0 .965-.973V37.738a.965.965 0 0 0-.965-.968ZM6.773 38.703h4.348v15.488H6.773Zm6.286 0h4.355v15.488H13.06Zm35.324 0h5.808v15.488h-5.808ZM25.16 40.641a.964.964 0 0 0-.973.968c0 .536.438.97.973.97v12.577a.968.968 0 0 0 .961.973h13.555a.971.971 0 0 0 .965-.973V42.578a.97.97 0 0 0 .964-.969.965.965 0 0 0-.964-.968Zm1.93 1.937h11.613v1.535l-6.492 6.492a.969.969 0 0 0 1.371 1.367l5.121-5.124v7.343H27.09v-2.5l6.492-6.492a.969.969 0 0 0 0-1.37.962.962 0 0 0-1.371 0l-5.121 5.124Zm0 0"/></g></svg>