<svg xmlns="http://www.w3.org/2000/svg" width="80" height="80" version="1.0" viewBox="0 0 60 60"><path fill="#302b27" d="M42.582 40.645a1.939 1.939 0 0 0-1.937-1.934h-21.29a1.939 1.939 0 0 0-1.937 1.934v1.937c0 1.066.871 1.934 1.937 1.934h1.934v13.55c0 1.067.871 1.934 1.938 1.934h13.546a1.939 1.939 0 0 0 1.938-1.934v-13.55h1.934a1.939 1.939 0 0 0 1.937-1.934Zm-5.809 17.421H23.227v-13.55h13.546Zm3.872-15.484h-21.29v-1.937h21.29ZM58.066 29.031H56.13a1.939 1.939 0 0 0-1.934 1.938v13.547h-9.68a1.936 1.936 0 0 0-1.933 1.937v1.934c0 1.066.867 1.937 1.934 1.937v7.742c0 1.067.867 1.934 1.937 1.934h1.934a1.939 1.939 0 0 0 1.937-1.934v-3.87h3.871v3.87c0 1.067.867 1.934 1.934 1.934h1.937A1.936 1.936 0 0 0 60 58.066V30.97a1.939 1.939 0 0 0-1.934-1.938Zm0 1.938v5.804H56.13V30.97ZM56.13 38.71h1.937v5.805H56.13Zm-11.613 7.742h13.55v1.934h-13.55Zm1.937 11.613v-7.742h1.934v7.742Zm3.871-5.808v-1.934h3.871v1.934Zm5.805 5.808v-7.742h1.937v7.742ZM15.484 44.516h-9.68V30.969a1.939 1.939 0 0 0-1.933-1.938H1.934A1.939 1.939 0 0 0 0 30.97v27.097C0 59.133.867 60 1.934 60H3.87a1.936 1.936 0 0 0 1.934-1.934v-3.87h3.87v3.87c0 1.067.872 1.934 1.938 1.934h1.934c1.07 0 1.937-.867 1.937-1.934v-7.742a1.939 1.939 0 0 0 1.934-1.937v-1.934c0-1.07-.867-1.937-1.934-1.937Zm-13.55 0V38.71H3.87v5.805ZM3.87 30.969v5.804H1.934V30.97ZM1.934 58.066v-7.742H3.87v7.742Zm3.87-5.808v-1.934h3.872v1.934Zm7.743 5.808h-1.934v-7.742h1.934Zm1.937-9.68H1.934v-1.933h13.55ZM5.805 27.098h48.39a1.939 1.939 0 0 0 1.934-1.938V1.934A1.936 1.936 0 0 0 54.195 0H5.805A1.936 1.936 0 0 0 3.87 1.934V25.16c0 1.067.867 1.938 1.934 1.938Zm0-13.551H17.19L14.703 25.16H5.805Zm15.414 0L20.39 25.16H16.68l2.488-11.613Zm1.941 0h13.68l.832 11.613H22.328Zm.067-1.934v-3.87h13.546v3.87Zm15.554 1.934h2.051L43.32 25.16h-3.71Zm1.864-1.934H38.71v-3.87h1.934Zm1.937-3.87h11.613v3.87H42.582Zm-3.871-1.938V1.934h1.934v3.87Zm-1.938 0H23.227V1.934h13.546Zm-15.484 0h-1.934V1.934h1.934Zm0 1.937v3.871h-1.934v-3.87Zm-3.871 3.871H5.805v-3.87h11.613ZM54.195 25.16h-8.898l-2.488-11.613h11.386Zm0-19.355H42.582V1.934h11.613ZM17.418 1.934v3.87H5.805v-3.87Zm0 0"/></svg>