<svg xmlns="http://www.w3.org/2000/svg" width="80" height="80" version="1.0" viewBox="0 0 60 60"><path fill="#302b27" d="M1 60h4c.55 0 1-.45 1-1v-3h30v3c0 .55.45 1 1 1h4c.55 0 1-.45 1-1V43a5.01 5.01 0 0 0-4-4.898V29c0-1.652-1.348-3-3-3H7c-1.652 0-3 1.348-3 3v9.102A5.01 5.01 0 0 0 0 43v16c0 .55.45 1 1 1Zm39-2h-2v-3c0-.55-.45-1-1-1H5c-.55 0-1 .45-1 1v3H2v-8h38ZM6 29c0-.55.45-1 1-1h28c.55 0 1 .45 1 1v9h-2v-4c0-1.652-1.348-3-3-3h-6c-1.652 0-3 1.348-3 3v4h-2v-4c0-1.652-1.348-3-3-3h-6c-1.652 0-3 1.348-3 3v4H6Zm26 9h-8v-4c0-.55.45-1 1-1h6c.55 0 1 .45 1 1Zm-14 0h-8v-4c0-.55.45-1 1-1h6c.55 0 1 .45 1 1ZM2 43c0-1.652 1.348-3 3-3h32c1.652 0 3 1.348 3 3v5H2Zm57-5H45c-.55 0-1 .45-1 1v15h2v-6h12v6h2V39c0-.55-.45-1-1-1Zm-13 8v-6h12v6Zm0 0"/><path fill="#302b27" d="M50 42h4v2h-4Zm6-11c.32 0 .621-.152.813-.414.187-.262.238-.598.136-.902l-2-6A1 1 0 0 0 54 23h-4a1 1 0 0 0-.95.684l-2 6A1.002 1.002 0 0 0 48 31h3v3h-2v2h6v-2h-2v-3Zm-5.277-6h2.558l1.332 4h-5.226Zm0 0"/><path fill="#302b27" d="m59.41 13.086-29-13a1.033 1.033 0 0 0-.82 0l-29 13c-.36.164-.59.52-.59.914v12h2V14.648l28-12.55 28 12.55V26h2V14c0-.395-.23-.75-.59-.914Zm0 0"/><path fill="#302b27" d="M23 15c0 3.86 3.14 7 7 7a7.008 7.008 0 0 0 6.902-8.164l-1.972.328A5.005 5.005 0 0 1 30 20c-2.758 0-5-2.242-5-5a5.005 5.005 0 0 1 6.668-4.715l.668-1.887A7.008 7.008 0 0 0 23 15Zm0 0"/><path fill="#302b27" d="m28.707 13.293-1.414 1.414 2 2c.195.195.45.293.707.293a.993.993 0 0 0 .707-.293l7-7-1.414-1.414L30 14.586Zm0 0"/></svg>