<svg xmlns="http://www.w3.org/2000/svg" width="512" height="512" fill="var(--color-primary)"><path d="M384.49 409.53c-25.36-8.83-59.07-14.78-95.89-17 8.54-18.07 17.73-34.9 26.5-50.25 70.31-24.92 117.34-91.27 117.34-166.07C432.44 79.05 353.28 0 255.99 0S79.56 79.05 79.56 176.22c0 74.8 47.03 141.14 117.34 166.07 8.77 15.35 17.97 32.17 26.5 50.25-36.82 2.21-70.53 8.17-95.89 17-39.63 13.8-47.95 30.6-47.95 42.26 0 18.01 19.01 33.43 54.97 44.57C167.07 506.44 210.21 512 255.99 512c45.79 0 88.93-5.56 121.49-15.65 35.96-11.14 54.97-26.56 54.97-44.57-.01-11.66-8.33-28.45-47.96-42.25zm-179.61-81.42c-65.39-21.92-109.33-82.96-109.33-151.9C95.56 87.87 167.53 16 255.99 16c88.48 0 160.46 71.87 160.46 160.22 0 68.94-43.94 129.98-109.33 151.9a7.94 7.94 0 0 0-4.39 3.6c-16.09 27.99-33.79 60.96-46.72 97.84-12.93-36.88-30.64-69.84-46.72-97.84a8.11 8.11 0 0 0-4.41-3.61zM255.99 496c-99.4 0-160.43-25.75-160.43-44.22 0-15.82 46.85-39.43 134.9-43.61 5.98 13.9 11.44 28.45 15.92 43.58 1.16 4.73 5.06 8 9.61 8 4.57 0 8.41-3.18 9.63-7.95 4.48-15.14 9.94-29.71 15.93-43.63 88.05 4.18 134.9 27.79 134.9 43.61-.01 18.47-61.05 44.22-160.46 44.22zm116.48-319.78c0-64.15-52.25-116.34-116.48-116.34-64.21 0-116.45 52.19-116.45 116.34s52.24 116.35 116.45 116.35c64.22-.01 116.48-52.2 116.48-116.35zM255.99 276.56c-55.39 0-100.45-45.01-100.45-100.35 0-55.33 45.06-100.34 100.45-100.34 55.41 0 100.48 45.01 100.48 100.34 0 55.34-45.08 100.35-100.48 100.35zm82.29-115.5a8.022 8.022 0 0 0-3.19-5.23l-74.39-54.26a7.998 7.998 0 0 0-9.43 0l-74.37 54.26c-1.71 1.25-2.86 3.13-3.19 5.23s.19 4.24 1.44 5.95l12.01 16.44c2.24 3.07 6.26 4.07 9.62 2.63v58.28c0 4.42 3.58 8 8 8h102.44c4.42 0 8-3.58 8-8v-58.3c1.01.44 2.08.67 3.15.67 2.47 0 4.9-1.14 6.47-3.28l12.01-16.44a8.02 8.02 0 0 0 1.43-5.95zm-92.03 75.3v-38.82h19.51v38.82zm35.5 0v-46.82c0-4.42-3.58-8-8-8h-35.51c-4.42 0-8 3.58-8 8v46.82h-17.46v-61.7l43.21-31.52 43.23 31.53v61.69zm34.88-68.8-55.93-40.79a8.012 8.012 0 0 0-4.71-1.54c-1.66 0-3.31.51-4.72 1.54l-55.9 40.78-2.57-3.52 63.19-46.1 63.21 46.1z"/></svg>