<svg xmlns="http://www.w3.org/2000/svg" width="32" height="32" fill="#302B27" viewBox="0 0 512 512"><path d="M475.093 35.957C452.228 12.77 421.703 0 389.141 0c-24.854 0-48.725 7.494-69.03 21.672-17.925 12.516-31.963 29.405-40.911 49.137h-77.433c-5.534 0-10.02 4.486-10.02 10.02s4.486 10.02 10.02 10.02h84.091c4.14 0 7.855-2.547 9.346-6.409 7.245-18.755 19.824-34.777 36.379-46.337 16.924-11.817 36.828-18.063 57.558-18.063 27.156 0 52.614 10.65 71.683 29.989 19.065 19.334 29.354 44.949 28.973 72.127-.597 42.562-28.316 79.149-66.445 93.14 5.501-21.493 6.36-40.499 2.593-55.37 19.24-2.694 34.096-19.251 34.096-39.221 0-21.843-17.771-39.613-39.614-39.613-21.844 0-39.614 17.771-39.614 39.613 0 15.674 9.152 29.25 22.392 35.669 7.422 12.624 6.577 36.577-2.248 64.293a99.54 99.54 0 0 1-10.813.702c-20.952.207-41.048-5.95-58.18-17.796-6.985-4.81-14.001-11.126-19.632-17.759a100.401 100.401 0 0 1-17.13-28.84 10.02 10.02 0 0 0-9.346-6.409H228.32c-3.58 0-6.888 1.91-8.678 5.01l-15.15 26.253c-.04.019-.14.02-.208-.053l-15.341-26.247a10.018 10.018 0 0 0-17.301.002l-15.411 26.384c-.039.019-.14.02-.207-.053l-15.38-26.33a10.021 10.021 0 0 0-8.651-4.966h-.001a10.02 10.02 0 0 0-8.651 4.964l-15.363 26.297c-.038.019-.141.02-.207-.053L92.65 155.574a10.021 10.021 0 0 0-8.678-5.01H38.624l-15.207-29.858 15.207-29.858h71.831c5.534 0 10.02-4.486 10.02-10.02s-4.486-10.02-10.02-10.02H32.482a10.02 10.02 0 0 0-8.929 5.473L3.245 116.159a10.019 10.019 0 0 0 0 9.094l20.309 39.878a10.02 10.02 0 0 0 8.929 5.473h45.704l12.23 21.188c3.636 6.298 10.147 10.069 17.418 10.088h.056c7.249 0 13.756-3.734 17.416-9.996l6.684-11.437 6.73 11.522c3.658 6.261 10.169 9.998 17.419 9.999 7.25 0 13.762-3.738 17.419-9.998l6.734-11.527 6.689 11.444c3.66 6.261 10.166 9.994 17.415 9.994h.057c7.271-.02 13.782-3.791 17.417-10.088l12.232-21.189H279.2a120.31 120.31 0 0 0 13.143 22.242 288.736 288.736 0 0 0-14.382 21.174 289.93 289.93 0 0 0-11.033 19.525 20.116 20.116 0 0 0-22.834 2.193L111.167 347.881c-8.5 7.172-9.582 19.924-2.412 28.426l13.096 15.529a20.041 20.041 0 0 0 13.715 7.095 20.75 20.75 0 0 0 1.74.074 20.031 20.031 0 0 0 12.975-4.756l2.734-2.307v99.885c0 11.124 9.05 20.174 20.174 20.174h167.817c11.124 0 20.174-9.05 20.174-20.174v-99.884l2.731 2.304a20.026 20.026 0 0 0 14.715 4.682 20.043 20.043 0 0 0 13.715-7.095l13.095-15.525c7.171-8.503 6.089-21.255-2.412-28.426l-34.582-29.177c8.712-10.296 16.908-21.611 24.422-33.788 9.432-15.29 17.178-30.909 23.102-46.517 21.826-4.979 41.933-16.019 58.239-32.253 22.532-22.432 35.185-52.16 35.628-83.71.459-32.585-11.88-63.297-34.74-86.481zm-54.665 65.173c10.794 0 19.575 8.781 19.575 19.574s-8.781 19.574-19.575 19.574-19.575-8.781-19.575-19.574 8.782-19.574 19.575-19.574zM137.36 378.931c-.049.041-.151.032-.191-.016l-13.096-15.528a.136.136 0 0 1 .016-.191l132.923-112.14c.025-.022.057-.032.088-.032s.062.01.087.032l6.576 5.548c.04.036.082.068.123.104l75.634 63.812c-5.194 5.115-10.432 9.683-15.671 13.706l-60.29-50.865a10.018 10.018 0 0 0-12.922 0zm133.27 113.03h-27.06v-35.536h27.06zm70.513-.135a.136.136 0 0 1-.135.135h-50.339v-36.572c0-10.479-8.525-19.003-19.003-19.003h-29.133c-10.479 0-19.003 8.525-19.003 19.003v36.572h-50.34a.136.136 0 0 1-.135-.135V375.035l84.044-70.905 49.11 41.432c-13.446 6.849-24.891 8.239-32.338 3.646a9.997 9.997 0 0 0-1.045-.555 30.143 30.143 0 0 0-15.729-4.406c-16.724 0-30.329 13.605-30.329 30.329s13.605 30.329 30.329 30.329 30.329-13.605 30.329-30.329a30.6 30.6 0 0 0-.131-2.755c10.748-.679 22.689-4.855 35.287-12.445l18.561 15.66zm-73.757-117.25c0 5.674-4.616 10.29-10.29 10.29s-10.29-4.616-10.29-10.29 4.616-10.29 10.29-10.29 10.29 4.616 10.29 10.29zm122.734-11.189-13.095 15.526c-.041.048-.142.056-.19.016l-37.355-31.516c5.18-4.193 10.325-8.844 15.405-13.93l35.219 29.715a.134.134 0 0 1 .016.189zm-14.308-88.994c-6.995 11.336-14.605 21.846-22.683 31.389l-70.284-59.298a267.727 267.727 0 0 1 12.17-21.943 270.183 270.183 0 0 1 10.936-16.376 122.113 122.113 0 0 0 14.618 11.889c20.226 13.985 43.908 21.358 68.567 21.358 1.131-.005 1.876-.004 3.997-.067-4.811 11.074-10.591 22.139-17.321 33.048z"/><circle cx="156.144" cy="80.47" r="10.02"/></svg>