<svg xmlns="http://www.w3.org/2000/svg" width="80" height="80" version="1.0" viewBox="0 0 60 60"><path fill="#302b27" d="M60 27.098V0H3.871v25.18a4.842 4.842 0 0 0-1.937 3.851v.02A4.838 4.838 0 0 0 0 32.902c0 2.051 1.29 3.801 3.094 4.5l.89 7.114h9.45l.89-7.114a4.834 4.834 0 0 0 3.094-4.5 4.838 4.838 0 0 0-1.934-3.851v-.02a4.83 4.83 0 0 0-1.937-3.851v-.02a4.84 4.84 0 0 0-4.836-4.836 4.783 4.783 0 0 0-2.906.992v-5.832h11.613v11.614h1.937V15.484H30.97v9.676h-2.903a4.844 4.844 0 0 0-4.84 4.84v6.773h-.968a4.846 4.846 0 0 0-4.84 4.84v1.067a4.847 4.847 0 0 0-3.871 4.738V60H60V47.418c0-1.574-.766-2.961-1.934-3.844V30a4.846 4.846 0 0 0-4.84-4.84h-6.773v-9.676h11.613v11.614ZM44.516 1.934v11.613H32.902V1.934ZM5.69 42.582l-.601-4.84h7.242l-.605 4.84Zm3.02-20.324a2.91 2.91 0 0 1 2.902 2.902c0 .094-.015.184-.027.274l-.102.761.57.32a2.894 2.894 0 0 1 1.493 2.516c0 .094-.016.184-.027.274l-.098.761.57.32a2.902 2.902 0 0 1 1.492 2.516 2.907 2.907 0 0 1-2.902 2.903h-2.504l2.219-2.22-1.367-1.366-1.254 1.25v-6.371H7.742v3.468l-1.25-1.25-1.37 1.368 2.62 2.62v2.5H4.84a2.907 2.907 0 0 1-2.906-2.902c0-1.035.574-2 1.496-2.515l.566-.32-.098-.762c-.011-.09-.027-.18-.027-.274 0-1.035.57-2 1.492-2.515l.57-.32-.097-.762a1.584 1.584 0 0 1-.031-.274 2.91 2.91 0 0 1 2.906-2.902Zm-2.906-8.711V1.934h11.613v11.613Zm13.55 0V1.934H30.97v11.613Zm8.711 13.55h11.637A4.788 4.788 0 0 0 38.711 30v12.582H25.16V30a2.907 2.907 0 0 1 2.905-2.902ZM55.16 44.517a2.91 2.91 0 0 1 2.906 2.902v.969H42.582v-.969c0-1.598 1.3-2.902 2.902-2.902Zm-28.062 5.808v7.742h-7.743v-7.742Zm1.933 0h1.938v7.742H29.03Zm3.871 0h7.743v7.742h-7.743Zm9.68 0h1.934v7.742h-1.934Zm3.871 0h7.742v7.742h-7.742Zm-5.808-2.906v.969H29.03v-.969a2.91 2.91 0 0 1 2.903-2.902h9.703a4.796 4.796 0 0 0-.992 2.902Zm-18.387-8.707h.969v3.871h-3.872v-.969c0-1.601 1.301-2.902 2.903-2.902Zm-3.871 5.805h9.703a4.796 4.796 0 0 0-.992 2.902v.969H15.484v-.969c0-1.598 1.301-2.902 2.903-2.902Zm-2.903 5.808h1.934v7.742h-1.934Zm40.645 7.742v-7.742h1.937v7.742Zm-.969-15.484h-2.902v-.969a2.907 2.907 0 0 1 2.902-2.902h.969v3.969a4.657 4.657 0 0 0-.969-.098ZM56.13 30v6.773h-.969a4.843 4.843 0 0 0-4.836 4.84v.969h-9.68V30a2.907 2.907 0 0 1 2.903-2.902h9.68c1.601 0 2.902 1.3 2.902 2.902Zm-11.613-4.84H32.902v-9.676h11.614Zm1.937-11.613V1.934h11.613v11.613Zm0 0"/></svg>