<svg xmlns="http://www.w3.org/2000/svg" width="512" height="512" fill="#9b9b9b"><path d="M511.9 353.03a7.983 7.983 0 0 0-3.19-5.23L359.16 238.75a7.998 7.998 0 0 0-9.43 0l-27 19.69V256c0-4.42-3.58-8-8-8h-48.94a46.086 46.086 0 0 0 5.13-21.16v-4.91h1.35c12.93 0 23.45-10.52 23.45-23.46v-61.4c0-70.33-57.29-127.55-127.71-127.55-70.43 0-127.73 57.22-127.73 127.55v45.98c0 11.25 9.16 20.4 20.42 20.4h4.42v23.4c0 25.61 20.86 46.45 46.49 46.45h4.67a6.7 6.7 0 0 1-3.03 1.92L37.77 298.8C14.82 305.93 0 326.06 0 350.07v86.49c0 4.42 3.58 8 8 8h235.46v49.92c0 4.42 3.58 8 8 8h205.96c4.42 0 8-3.58 8-8V374.07l15.72 11.46c3.57 2.6 8.57 1.82 11.17-1.74l18.14-24.8a7.978 7.978 0 0 0 1.45-5.96zm-301.64 22.12-7.17 53.41h-70.17l-9.61-71.5a104.202 104.202 0 0 0 44.71 10.04c11.07 0 22.07-1.78 32.55-5.21zM107.45 183.19v-43.92c25.58-1.83 45.54-12.64 60.56-32.83 15.01 20.2 34.96 31.01 60.55 32.83v43.92c0 8.04-1.59 15.72-4.46 22.74h-15.51c-2.96-5.93-9.07-10.02-16.14-10.02h-17.8c-9.94 0-18.03 8.08-18.03 18.02s8.09 18.02 18.03 18.02h17.8c7.07 0 13.18-4.09 16.14-10.02h5.87c-11.11 13.27-27.81 21.74-46.44 21.74-33.4 0-60.57-27.13-60.57-60.48zm87.03 30.74c0 1.1-.93 2.02-2.04 2.02h-17.8c-1.1 0-2.03-.93-2.03-2.02s.93-2.02 2.03-2.02h17.8c1.11 0 2.04.92 2.04 2.02zm28.26 61.27a6.617 6.617 0 0 1-3.01-1.91h4.69c9.16 0 17.7-2.67 24.91-7.26v12.59c0 2.18.88 4.16 2.29 5.6zm35.13 27.73v2.8l-24.55 17.9 3.67-27.23zm16-8.86v-7.45h10.22zm32.86-23.97-.71.52h-40.69V264h41.4zm-51.81-43.26c0 16.79-13.68 30.45-30.49 30.45h-6.34v-16.32a76.953 76.953 0 0 0 15.89-19.03h20.95v4.9zm17.35-20.91h-1.35v-2.49h4.39c.91 0 1.8-.08 2.68-.2a7.403 7.403 0 0 1-5.72 2.69zm7.45-22.89c0 2.38-2.02 4.4-4.42 4.4h-4.39v-32.55h4.39c2.39 0 4.42 2.02 4.42 4.4zM168.01 25.52c61.59 0 111.71 50.04 111.71 111.55v2.32c-1.42-.32-2.9-.49-4.42-.49h-4.39v-1.82c0-56.66-46.16-102.75-102.9-102.75s-102.9 46.1-102.9 102.75v1.82H60.7c-1.52 0-2.99.18-4.42.49v-2.32c0-61.51 50.12-111.55 111.73-111.55zM60.7 187.44c-2.39 0-4.42-2.02-4.42-4.4v-23.75c0-2.38 2.02-4.4 4.42-4.4h4.42v32.55zm20.41 39.4v-89.77c0-47.84 38.98-86.75 86.9-86.75s86.9 38.92 86.9 86.75v68.86H241.1a76.03 76.03 0 0 0 3.46-22.74v-51.64c0-4.42-3.58-8-8-8-27.98 0-47.55-11.34-61.61-35.69-1.43-2.47-4.07-4-6.92-4-2.86 0-5.5 1.52-6.92 3.99-14.09 24.35-33.67 35.7-61.64 35.7-4.42 0-8 3.58-8 8v51.64c0 23.05 10.28 43.74 26.48 57.77v16.33h-6.32c-16.84 0-30.52-13.66-30.52-30.45zm36.88 63.64c9.53-2.94 15.93-11.62 15.93-21.6v-17.24a76.093 76.093 0 0 0 34.09 8.03c12.23 0 23.8-2.9 34.07-8.02v17.23c0 9.97 6.4 18.65 15.9 21.59l3.51 1.1-6.07 45.12-4.69 3.42c-13.05 7.19-27.81 11-42.71 11-16.85 0-33.15-4.73-47.35-13.72l-6.16-45.82zM16 350.07c0-16.86 10.41-31 26.53-36.02l56.48-17.65 17.76 132.15h-54v-16.94c0-4.42-3.58-8-8-8s-8 3.58-8 8v16.94H16zm203.23 78.49 5.6-41.73c1.02-.24 2.02-.65 2.92-1.31l15.72-11.46v54.49h-24.24zm107.53 57.92V404.7h55.38v81.78zm122.67 0h-51.29V396.7c0-4.42-3.58-8-8-8h-71.38c-4.42 0-8 3.58-8 8v89.78h-51.29V362.41l94.98-69.24 94.98 69.24zm34.69-118.58-124.96-91.1a7.998 7.998 0 0 0-9.43 0l-124.96 91.1-8.7-11.89 138.37-100.89 138.37 100.89zm-291.42-197v-13.48c0-4.42 3.58-8 8-8s8 3.58 8 8v13.48c0 4.42-3.58 8-8 8s-8-3.58-8-8zm-49.37-13.48v13.48c0 4.42-3.58 8-8 8s-8-3.58-8-8v-13.48c0-4.42 3.58-8 8-8s8 3.59 8 8z"/></svg>